<mxfile host="app.diagrams.net" agent="Mozilla/5.0 (Macintosh; Intel Mac OS X 10.15; rv:134.0) Gecko/20100101 Firefox/134.0" version="26.0.10">
  <diagram name="Page-1" id="BIQ052NuAkTi_8ypMH66">
    <mxGraphModel dx="1242" dy="795" grid="1" gridSize="10" guides="1" tooltips="1" connect="1" arrows="1" fold="1" page="0" pageScale="1" pageWidth="850" pageHeight="1100" math="0" shadow="0">
      <root>
        <mxCell id="0" />
        <mxCell id="1" parent="0" />
        <mxCell id="9MpUW4yEcf2y4PMzpkl6-1" value="Caching &amp; Optimization" style="whiteSpace=wrap;strokeWidth=2;" vertex="1" parent="1">
          <mxGeometry x="1023" y="545" width="216" height="104" as="geometry" />
        </mxCell>
        <mxCell id="9MpUW4yEcf2y4PMzpkl6-2" value="Load Balancing &amp; Scaling" style="whiteSpace=wrap;strokeWidth=2;" vertex="1" parent="1">
          <mxGeometry x="20" y="173" width="303" height="477" as="geometry" />
        </mxCell>
        <mxCell id="9MpUW4yEcf2y4PMzpkl6-3" value="Data Processing" style="whiteSpace=wrap;strokeWidth=2;" vertex="1" parent="1">
          <mxGeometry x="1048" y="173" width="251" height="282" as="geometry" />
        </mxCell>
        <mxCell id="9MpUW4yEcf2y4PMzpkl6-4" value="DashboardApp" style="whiteSpace=wrap;strokeWidth=2;" vertex="1" parent="1">
          <mxGeometry x="450" y="350" width="468" height="299" as="geometry" />
        </mxCell>
        <mxCell id="9MpUW4yEcf2y4PMzpkl6-5" value="Users" style="whiteSpace=wrap;strokeWidth=2;" vertex="1" parent="1">
          <mxGeometry x="349" y="20" width="679" height="257" as="geometry" />
        </mxCell>
        <mxCell id="9MpUW4yEcf2y4PMzpkl6-6" value="User: Field Engineer" style="whiteSpace=wrap;strokeWidth=2;" vertex="1" parent="1">
          <mxGeometry x="384" y="45" width="205" height="54" as="geometry" />
        </mxCell>
        <mxCell id="9MpUW4yEcf2y4PMzpkl6-7" value="Dashboard UI" style="whiteSpace=wrap;strokeWidth=2;" vertex="1" parent="1">
          <mxGeometry x="610" y="198" width="154" height="54" as="geometry" />
        </mxCell>
        <mxCell id="9MpUW4yEcf2y4PMzpkl6-8" value="User: Planner" style="whiteSpace=wrap;strokeWidth=2;" vertex="1" parent="1">
          <mxGeometry x="639" y="45" width="157" height="54" as="geometry" />
        </mxCell>
        <mxCell id="9MpUW4yEcf2y4PMzpkl6-9" value="User: Admin" style="whiteSpace=wrap;strokeWidth=2;" vertex="1" parent="1">
          <mxGeometry x="846" y="45" width="147" height="54" as="geometry" />
        </mxCell>
        <mxCell id="9MpUW4yEcf2y4PMzpkl6-10" value="Dashboard API" style="whiteSpace=wrap;strokeWidth=2;" vertex="1" parent="1">
          <mxGeometry x="606" y="375" width="162" height="54" as="geometry" />
        </mxCell>
        <mxCell id="9MpUW4yEcf2y4PMzpkl6-11" value="Reports Database" style="whiteSpace=wrap;strokeWidth=2;" vertex="1" parent="1">
          <mxGeometry x="580" y="570" width="184" height="54" as="geometry" />
        </mxCell>
        <mxCell id="9MpUW4yEcf2y4PMzpkl6-12" value="Sensor Input App" style="whiteSpace=wrap;strokeWidth=2;" vertex="1" parent="1">
          <mxGeometry x="1083" y="198" width="181" height="54" as="geometry" />
        </mxCell>
        <mxCell id="9MpUW4yEcf2y4PMzpkl6-13" value="Worker Service" style="whiteSpace=wrap;strokeWidth=2;" vertex="1" parent="1">
          <mxGeometry x="1090" y="375" width="167" height="54" as="geometry" />
        </mxCell>
        <mxCell id="9MpUW4yEcf2y4PMzpkl6-14" value="Load Balancer" style="whiteSpace=wrap;strokeWidth=2;" vertex="1" parent="1">
          <mxGeometry x="91" y="198" width="161" height="54" as="geometry" />
        </mxCell>
        <mxCell id="9MpUW4yEcf2y4PMzpkl6-15" value="Kubernetes Auto Scaling" style="whiteSpace=wrap;strokeWidth=2;" vertex="1" parent="1">
          <mxGeometry x="55" y="570" width="233" height="54" as="geometry" />
        </mxCell>
        <mxCell id="9MpUW4yEcf2y4PMzpkl6-16" value="Redis Cache" style="whiteSpace=wrap;strokeWidth=2;" vertex="1" parent="1">
          <mxGeometry x="1058" y="570" width="146" height="54" as="geometry" />
        </mxCell>
        <mxCell id="9MpUW4yEcf2y4PMzpkl6-17" value="Access" style="curved=1;startArrow=none;endArrow=block;exitX=0.5;exitY=1;entryX=0;entryY=0.12;rounded=0;" edge="1" parent="1" source="9MpUW4yEcf2y4PMzpkl6-6" target="9MpUW4yEcf2y4PMzpkl6-7">
          <mxGeometry relative="1" as="geometry">
            <Array as="points">
              <mxPoint x="486" y="173" />
            </Array>
          </mxGeometry>
        </mxCell>
        <mxCell id="9MpUW4yEcf2y4PMzpkl6-18" value="Access" style="curved=1;startArrow=none;endArrow=block;exitX=0.5;exitY=1;entryX=0.6;entryY=-0.01;rounded=0;" edge="1" parent="1" source="9MpUW4yEcf2y4PMzpkl6-8" target="9MpUW4yEcf2y4PMzpkl6-7">
          <mxGeometry relative="1" as="geometry">
            <Array as="points">
              <mxPoint x="717" y="173" />
            </Array>
          </mxGeometry>
        </mxCell>
        <mxCell id="9MpUW4yEcf2y4PMzpkl6-19" value="Access" style="curved=1;startArrow=none;endArrow=block;exitX=0.5;exitY=1;entryX=1;entryY=0.17;rounded=0;" edge="1" parent="1" source="9MpUW4yEcf2y4PMzpkl6-9" target="9MpUW4yEcf2y4PMzpkl6-7">
          <mxGeometry relative="1" as="geometry">
            <Array as="points">
              <mxPoint x="919" y="173" />
            </Array>
          </mxGeometry>
        </mxCell>
        <mxCell id="9MpUW4yEcf2y4PMzpkl6-20" value="Fetch Reports" style="curved=1;startArrow=none;endArrow=block;exitX=0.5;exitY=0.99;entryX=0.5;entryY=0;rounded=0;" edge="1" parent="1" source="9MpUW4yEcf2y4PMzpkl6-7" target="9MpUW4yEcf2y4PMzpkl6-10">
          <mxGeometry relative="1" as="geometry">
            <Array as="points" />
          </mxGeometry>
        </mxCell>
        <mxCell id="9MpUW4yEcf2y4PMzpkl6-21" value="Query" style="curved=1;startArrow=none;endArrow=block;exitX=0.13;exitY=1;entryX=0.22;entryY=0;rounded=0;" edge="1" parent="1" source="9MpUW4yEcf2y4PMzpkl6-10" target="9MpUW4yEcf2y4PMzpkl6-11">
          <mxGeometry relative="1" as="geometry">
            <Array as="points">
              <mxPoint x="572" y="454" />
              <mxPoint x="572" y="545" />
            </Array>
          </mxGeometry>
        </mxCell>
        <mxCell id="9MpUW4yEcf2y4PMzpkl6-22" value="Send Raw Data" style="curved=1;startArrow=none;endArrow=block;exitX=0.5;exitY=0.99;entryX=0.5;entryY=0;rounded=0;" edge="1" parent="1" source="9MpUW4yEcf2y4PMzpkl6-12" target="9MpUW4yEcf2y4PMzpkl6-13">
          <mxGeometry relative="1" as="geometry">
            <Array as="points" />
          </mxGeometry>
        </mxCell>
        <mxCell id="9MpUW4yEcf2y4PMzpkl6-23" value="Process &amp; Store Reports" style="curved=1;startArrow=none;endArrow=block;exitX=0.5;exitY=1;entryX=0.56;entryY=0;rounded=0;" edge="1" parent="1" source="9MpUW4yEcf2y4PMzpkl6-13" target="9MpUW4yEcf2y4PMzpkl6-11">
          <mxGeometry relative="1" as="geometry">
            <Array as="points">
              <mxPoint x="1173" y="454" />
              <mxPoint x="693" y="500" />
              <mxPoint x="693" y="545" />
            </Array>
          </mxGeometry>
        </mxCell>
        <mxCell id="9MpUW4yEcf2y4PMzpkl6-24" value="" style="curved=1;startArrow=none;endArrow=block;exitX=0.5;exitY=0.99;entryX=0;entryY=0.35;rounded=0;" edge="1" parent="1" source="9MpUW4yEcf2y4PMzpkl6-14" target="9MpUW4yEcf2y4PMzpkl6-10">
          <mxGeometry relative="1" as="geometry">
            <Array as="points">
              <mxPoint x="172" y="350" />
            </Array>
          </mxGeometry>
        </mxCell>
        <mxCell id="9MpUW4yEcf2y4PMzpkl6-25" value="Scale" style="curved=1;startArrow=none;endArrow=block;exitX=0;exitY=0.92;entryX=1;entryY=0.16;rounded=0;" edge="1" parent="1" source="9MpUW4yEcf2y4PMzpkl6-10" target="9MpUW4yEcf2y4PMzpkl6-15">
          <mxGeometry relative="1" as="geometry">
            <Array as="points">
              <mxPoint x="502" y="454" />
              <mxPoint x="502" y="545" />
            </Array>
          </mxGeometry>
        </mxCell>
        <mxCell id="9MpUW4yEcf2y4PMzpkl6-26" value="Cache Reports" style="curved=1;startArrow=none;endArrow=block;exitX=1;exitY=1;entryX=0;entryY=0.26;rounded=0;" edge="1" parent="1" source="9MpUW4yEcf2y4PMzpkl6-10" target="9MpUW4yEcf2y4PMzpkl6-16">
          <mxGeometry relative="1" as="geometry">
            <Array as="points">
              <mxPoint x="844" y="454" />
              <mxPoint x="844" y="545" />
            </Array>
          </mxGeometry>
        </mxCell>
      </root>
    </mxGraphModel>
  </diagram>
</mxfile>
